<svg xmlns="http://www.w3.org/2000/svg" version="1.1" xmlns:xlink="http://www.w3.org/1999/xlink" xmlns:svgjs="http://svgjs.dev/svgjs" width="1500" height="219" viewBox="0 0 1500 219"><g transform="matrix(1,0,0,1,-0.9090909090909918,-0.9290554587098967)"><svg viewBox="0 0 396 58" data-background-color="#ffffff" preserveAspectRatio="xMidYMid meet" height="219" width="1500" xmlns="http://www.w3.org/2000/svg" xmlns:xlink="http://www.w3.org/1999/xlink"><g id="tight-bounds" transform="matrix(1,0,0,1,0.2400000000000091,0.24605121737522495)"><svg viewBox="0 0 395.52 57.50789756524955" height="57.50789756524955" width="395.52"><g><svg viewBox="0 0 483.5218115800003 70.30320289974351" height="57.50789756524955" width="395.52"><g><rect width="3.402488908371541" height="70.30320289974351" x="75.69228364447812" y="0" fill="#111111" opacity="1" stroke-width="0" stroke="transparent" fill-opacity="1" class="rect-qz-0" data-fill-palette-color="primary" rx="1%" id="qz-0" data-palette-color="#111111"></rect></g><g transform="matrix(1,0,0,1,88.0018115800003,0.1748835893028442)"><svg viewBox="0 0 395.52000000000004 69.95343572113782" height="69.95343572113782" width="395.52000000000004"><g id="textblocktransform"><svg viewBox="0 0 395.52000000000004 69.95343572113782" height="69.95343572113782" width="395.52000000000004" id="textblock"><g><svg viewBox="0 0 395.52000000000004 37.72954060196984" height="37.72954060196984" width="395.52000000000004"><g transform="matrix(1,0,0,1,0,0)"><svg width="395.52000000000004" viewBox="1.95 -33.28 354.44 33.82" height="37.72954060196984" data-palette-color="#111111"><path d="M17.02-28.98Q17.85-28.98 18.2-28.6 18.55-28.22 18.55-27.32L18.55-27.32Q18.55-26.42 18.2-26.04 17.85-25.66 17.02-25.66L17.02-25.66 11.11-25.66 11.11-3.32 23.19-3.32 23.19-11.35Q23.19-12.21 23.61-12.57 24.02-12.94 25.02-12.94L25.02-12.94Q26.03-12.94 26.44-12.57 26.86-12.21 26.86-11.35L26.86-11.35 26.86-1.66Q26.86-0.76 26.5-0.38 26.15 0 25.32 0L25.32 0 3.49 0Q2.66 0 2.31-0.38 1.95-0.76 1.95-1.66L1.95-1.66Q1.95-2.56 2.31-2.94 2.66-3.32 3.49-3.32L3.49-3.32 7.45-3.32 7.45-25.66 3.49-25.66Q2.66-25.66 2.31-26.04 1.95-26.42 1.95-27.32L1.95-27.32Q1.95-28.22 2.31-28.6 2.66-28.98 3.49-28.98L3.49-28.98 17.02-28.98ZM45.85-22.56Q46.68-22.56 47.03-22.18 47.39-21.8 47.39-20.9L47.39-20.9 47.39-3.32 55.22-3.32Q56.05-3.32 56.41-2.94 56.76-2.56 56.76-1.66L56.76-1.66Q56.76-0.76 56.41-0.38 56.05 0 55.22 0L55.22 0 36.08 0Q35.25 0 34.9-0.38 34.54-0.76 34.54-1.66L34.54-1.66Q34.54-2.56 34.9-2.94 35.25-3.32 36.08-3.32L36.08-3.32 43.72-3.32 43.72-19.24 37.55-19.24Q36.72-19.24 36.36-19.62 36.01-20 36.01-20.9L36.01-20.9Q36.01-21.8 36.36-22.18 36.72-22.56 37.55-22.56L37.55-22.56 45.85-22.56ZM45.07-33.28Q46.41-33.28 46.9-32.92 47.39-32.57 47.39-31.69L47.39-31.69 47.39-28.52Q47.39-27.64 46.9-27.28 46.41-26.93 45.07-26.93L45.07-26.93Q43.72-26.93 43.23-27.28 42.75-27.64 42.75-28.52L42.75-28.52 42.75-31.69Q42.75-32.57 43.23-32.92 43.72-33.28 45.07-33.28L45.07-33.28ZM79.49-32.15Q82.76-32.15 85.98-30.91L85.98-30.91Q87.15-30.47 87.15-29.3L87.15-29.3Q87.15-29.03 87.08-28.66L87.08-28.66Q86.74-27.27 85.86-27.27L85.86-27.27Q85.59-27.27 85.27-27.39L85.27-27.39Q82.17-28.59 79.49-28.59L79.49-28.59Q74.56-28.59 74.56-23.29L74.56-23.29 74.56-20.61 83-20.61Q83.83-20.61 84.19-20.23 84.54-19.85 84.54-18.95L84.54-18.95Q84.54-18.04 84.19-17.66 83.83-17.29 83-17.29L83-17.29 74.56-17.29 74.56-3.32 83-3.32Q83.83-3.32 84.19-2.94 84.54-2.56 84.54-1.66L84.54-1.66Q84.54-0.76 84.19-0.38 83.83 0 83 0L83 0 66.06 0Q65.23 0 64.88-0.38 64.52-0.76 64.52-1.66L64.52-1.66Q64.52-2.56 64.88-2.94 65.23-3.32 66.06-3.32L66.06-3.32 70.89-3.32 70.89-17.29 66.06-17.29Q65.23-17.29 64.88-17.66 64.52-18.04 64.52-18.95L64.52-18.95Q64.52-19.85 64.88-20.23 65.23-20.61 66.06-20.61L66.06-20.61 70.89-20.61 70.89-23.61Q70.89-27.64 73.15-29.9 75.41-32.15 79.49-32.15L79.49-32.15ZM105.14-23.1Q108.68-23.1 111.19-21.67 113.69-20.24 115.03-17.71 116.37-15.19 116.57-11.89L116.57-11.89Q116.57-11.06 116.22-10.72 115.86-10.38 115.03-10.38L115.03-10.38 97.36-10.38Q97.53-6.74 99.52-4.87 101.51-3 105.14-3L105.14-3Q107.39-3 109.59-3.58 111.78-4.15 113.44-5.1L113.44-5.1Q113.86-5.32 114.2-5.32L114.2-5.32Q115.06-5.32 115.59-4.03L115.59-4.03Q115.81-3.52 115.81-3.1L115.81-3.1Q115.81-2.12 114.74-1.59L114.74-1.59Q112.86-0.63 110.3-0.05 107.73 0.54 105.14 0.54L105.14 0.54Q101.46 0.54 98.85-0.88 96.23-2.29 94.87-4.96 93.5-7.62 93.5-11.28L93.5-11.28Q93.5-14.77 94.99-17.46 96.48-20.14 99.11-21.62 101.75-23.1 105.14-23.1L105.14-23.1ZM105.14-19.56Q102.14-19.56 100.18-18.03 98.21-16.5 97.6-13.79L97.6-13.79 112.52-13.79Q112-16.6 110.16-18.08 108.32-19.56 105.14-19.56L105.14-19.56ZM164.88-23.1Q168.22-23.1 170.91-21.58 173.6-20.07 175.12-17.37 176.65-14.67 176.65-11.28L176.65-11.28Q176.65-7.89 175.12-5.19 173.6-2.49 170.91-0.98 168.22 0.54 164.88 0.54L164.88 0.54Q161.54 0.54 158.85-0.98 156.16-2.49 154.64-5.19 153.11-7.89 153.11-11.28L153.11-11.28Q153.11-14.67 154.64-17.37 156.16-20.07 158.85-21.58 161.54-23.1 164.88-23.1L164.88-23.1ZM164.88-19.48Q162.51-19.48 160.72-18.44 158.92-17.41 157.95-15.54 156.97-13.67 156.97-11.28L156.97-11.28Q156.97-8.89 157.95-7.02 158.92-5.15 160.72-4.11 162.51-3.08 164.88-3.08L164.88-3.08Q167.25-3.08 169.04-4.11 170.84-5.15 171.81-7.02 172.79-8.89 172.79-11.28L172.79-11.28Q172.79-13.67 171.81-15.54 170.84-17.41 169.04-18.44 167.25-19.48 164.88-19.48L164.88-19.48ZM199.4-32.15Q202.67-32.15 205.89-30.91L205.89-30.91Q207.07-30.47 207.07-29.3L207.07-29.3Q207.07-29.03 206.99-28.66L206.99-28.66Q206.65-27.27 205.77-27.27L205.77-27.27Q205.5-27.27 205.19-27.39L205.19-27.39Q202.08-28.59 199.4-28.59L199.4-28.59Q194.47-28.59 194.47-23.29L194.47-23.29 194.47-20.61 202.91-20.61Q203.74-20.61 204.1-20.23 204.45-19.85 204.45-18.95L204.45-18.95Q204.45-18.04 204.1-17.66 203.74-17.29 202.91-17.29L202.91-17.29 194.47-17.29 194.47-3.32 202.91-3.32Q203.74-3.32 204.1-2.94 204.45-2.56 204.45-1.66L204.45-1.66Q204.45-0.76 204.1-0.38 203.74 0 202.91 0L202.91 0 185.97 0Q185.14 0 184.79-0.38 184.43-0.76 184.43-1.66L184.43-1.66Q184.43-2.56 184.79-2.94 185.14-3.32 185.97-3.32L185.97-3.32 190.81-3.32 190.81-17.29 185.97-17.29Q185.14-17.29 184.79-17.66 184.43-18.04 184.43-18.95L184.43-18.95Q184.43-19.85 184.79-20.23 185.14-20.61 185.97-20.61L185.97-20.61 190.81-20.61 190.81-23.61Q190.81-27.64 193.06-29.9 195.32-32.15 199.4-32.15L199.4-32.15ZM263.6-23.1Q264.6-23.1 265.02-22.73 265.43-22.36 265.43-21.51L265.43-21.51 265.43-14.43Q265.43-13.57 265.02-13.21 264.6-12.84 263.6-12.84L263.6-12.84Q262.6-12.84 262.19-13.21 261.77-13.57 261.77-14.43L261.77-14.43Q261.77-15.92 260.99-17.07 260.21-18.21 258.66-18.85 257.11-19.48 254.94-19.48L254.94-19.48Q252.59-19.48 250.74-18.43 248.88-17.38 247.83-15.5 246.78-13.62 246.78-11.28L246.78-11.28Q246.78-8.91 247.77-7.04 248.76-5.18 250.55-4.13 252.35-3.08 254.69-3.08L254.69-3.08Q256.94-3.08 259.05-3.77 261.16-4.47 262.9-5.79L262.9-5.79Q263.41-6.18 263.85-6.18L263.85-6.18Q264.56-6.18 265.17-5.18L265.17-5.18Q265.53-4.57 265.53-4L265.53-4Q265.53-3.15 264.75-2.59L264.75-2.59Q262.8-1.12 260.14-0.29 257.48 0.54 254.69 0.54L254.69 0.54Q251.2 0.54 248.53-1 245.85-2.54 244.39-5.22 242.92-7.91 242.92-11.28L242.92-11.28Q242.92-14.65 244.41-17.33 245.9-20.02 248.58-21.56 251.25-23.1 254.69-23.1L254.69-23.1Q256.86-23.1 258.68-22.3 260.5-21.51 261.77-20.04L261.77-20.04 261.77-21.51Q261.77-22.36 262.19-22.73 262.6-23.1 263.6-23.1L263.6-23.1ZM284.79-23.1Q288.14-23.1 290.82-21.58 293.51-20.07 295.03-17.37 296.56-14.67 296.56-11.28L296.56-11.28Q296.56-7.89 295.03-5.19 293.51-2.49 290.82-0.98 288.14 0.54 284.79 0.54L284.79 0.54Q281.45 0.54 278.76-0.98 276.08-2.49 274.55-5.19 273.02-7.89 273.02-11.28L273.02-11.28Q273.02-14.67 274.55-17.37 276.08-20.07 278.76-21.58 281.45-23.1 284.79-23.1L284.79-23.1ZM284.79-19.48Q282.42-19.48 280.63-18.44 278.83-17.41 277.86-15.54 276.88-13.67 276.88-11.28L276.88-11.28Q276.88-8.89 277.86-7.02 278.83-5.15 280.63-4.11 282.42-3.08 284.79-3.08L284.79-3.08Q287.16-3.08 288.95-4.11 290.75-5.15 291.73-7.02 292.7-8.89 292.7-11.28L292.7-11.28Q292.7-13.67 291.73-15.54 290.75-17.41 288.95-18.44 287.16-19.48 284.79-19.48L284.79-19.48ZM323.29-32.03Q324.12-32.03 324.47-31.65 324.83-31.27 324.83-30.37L324.83-30.37 324.83-3.32 326.83-3.32Q327.66-3.32 328.01-2.94 328.37-2.56 328.37-1.66L328.37-1.66Q328.37-0.76 328.01-0.38 327.66 0 326.83 0L326.83 0 322.95 0Q322.12 0 321.76-0.38 321.41-0.76 321.41-1.66L321.41-1.66 321.41-3.61Q319.87-1.61 317.85-0.54 315.82 0.54 313.43 0.54L313.43 0.54Q310.4 0.54 308.01-0.89 305.61-2.32 304.25-4.99 302.88-7.67 302.88-11.28L302.88-11.28Q302.88-14.89 304.25-17.57 305.61-20.24 308.01-21.67 310.4-23.1 313.43-23.1L313.43-23.1Q318.02-23.1 321.17-19.07L321.17-19.07 321.17-28.71 317.21-28.71Q316.38-28.71 316.03-29.09 315.67-29.47 315.67-30.37L315.67-30.37Q315.67-31.27 316.03-31.65 316.38-32.03 317.21-32.03L317.21-32.03 323.29-32.03ZM313.67-19.48Q311.5-19.48 309.94-18.44 308.37-17.41 307.56-15.55 306.74-13.7 306.74-11.28L306.74-11.28Q306.74-8.86 307.56-7.01 308.37-5.15 309.94-4.11 311.5-3.08 313.67-3.08L313.67-3.08Q315.84-3.08 317.54-4.05 319.24-5.03 320.2-6.88 321.17-8.74 321.17-11.28L321.17-11.28Q321.17-13.82 320.2-15.67 319.24-17.53 317.54-18.51 315.84-19.48 313.67-19.48L313.67-19.48ZM344.97-23.1Q348.51-23.1 351.01-21.67 353.51-20.24 354.86-17.71 356.2-15.19 356.39-11.89L356.39-11.89Q356.39-11.06 356.04-10.72 355.69-10.38 354.86-10.38L354.86-10.38 337.18-10.38Q337.35-6.74 339.34-4.87 341.33-3 344.97-3L344.97-3Q347.21-3 349.41-3.58 351.61-4.15 353.27-5.1L353.27-5.1Q353.68-5.32 354.03-5.32L354.03-5.32Q354.88-5.32 355.42-4.03L355.42-4.03Q355.64-3.52 355.64-3.1L355.64-3.1Q355.64-2.12 354.56-1.59L354.56-1.59Q352.68-0.63 350.12-0.05 347.56 0.54 344.97 0.54L344.97 0.54Q341.28 0.54 338.67-0.88 336.06-2.29 334.69-4.96 333.32-7.62 333.32-11.28L333.32-11.28Q333.32-14.77 334.81-17.46 336.3-20.14 338.94-21.62 341.57-23.1 344.97-23.1L344.97-23.1ZM344.97-19.56Q341.96-19.56 340-18.03 338.03-16.5 337.42-13.79L337.42-13.79 352.34-13.79Q351.83-16.6 349.98-18.08 348.14-19.56 344.97-19.56L344.97-19.56Z" opacity="1" transform="matrix(1,0,0,1,0,0)" fill="#111111" class="wordmark-text-0" data-fill-palette-color="primary" id="text-0"></path></svg></g></svg></g><g transform="matrix(1,0,0,1,0,46.63657962912047)"><svg viewBox="0 0 210.09408378961172 23.31685609201736" height="23.31685609201736" width="210.09408378961172"><g transform="matrix(1,0,0,1,0,0)"><svg width="210.09408378961172" viewBox="4.6 -36.55 433.34999999999997 48.099999999999994" height="23.31685609201736" data-palette-color="#111111"><path d="M14 0.6L14 0.6Q12.25 0.6 10.38-0.23 8.5-1.05 6.8-2.45L6.8-2.45 6.7-2.45 6.45 0 4.6 0 4.6-35.95 6.8-35.95 6.8-25.55 6.7-20.85Q8.55-22.4 10.65-23.5 12.75-24.6 15-24.6L15-24.6Q19.8-24.6 22.2-21.28 24.6-17.95 24.6-12.35L24.6-12.35Q24.6-9.3 23.75-6.9 22.9-4.5 21.43-2.83 19.95-1.15 18.03-0.28 16.1 0.6 14 0.6ZM13.9-1.35L13.9-1.35Q15.7-1.35 17.25-2.15 18.8-2.95 19.9-4.4 21-5.85 21.63-7.88 22.25-9.9 22.25-12.35L22.25-12.35Q22.25-14.55 21.83-16.45 21.4-18.35 20.5-19.73 19.6-21.1 18.15-21.88 16.7-22.65 14.65-22.65L14.65-22.65Q12.85-22.65 10.9-21.63 8.95-20.6 6.8-18.7L6.8-18.7 6.8-4.45Q8.8-2.75 10.65-2.05 12.5-1.35 13.9-1.35ZM34.65 0.6L34.65 0.6Q31.7 0.6 31.7-3.2L31.7-3.2 31.7-35.95 33.9-35.95 33.9-2.9Q33.9-2.1 34.2-1.73 34.5-1.35 34.95-1.35L34.95-1.35Q35.1-1.35 35.27-1.35 35.45-1.35 35.85-1.45L35.85-1.45 36.25 0.35Q35.9 0.45 35.55 0.53 35.2 0.6 34.65 0.6ZM52.3 0.6L52.3 0.6Q50.15 0.6 48.2-0.25 46.25-1.1 44.77-2.7 43.3-4.3 42.42-6.63 41.55-8.95 41.55-11.95L41.55-11.95Q41.55-14.95 42.42-17.32 43.3-19.7 44.77-21.3 46.25-22.9 48.2-23.75 50.15-24.6 52.3-24.6L52.3-24.6Q54.45-24.6 56.42-23.75 58.4-22.9 59.87-21.3 61.35-19.7 62.22-17.32 63.1-14.95 63.1-11.95L63.1-11.95Q63.1-8.95 62.22-6.63 61.35-4.3 59.87-2.7 58.4-1.1 56.42-0.25 54.45 0.6 52.3 0.6ZM52.3-1.35L52.3-1.35Q54.1-1.35 55.67-2.13 57.25-2.9 58.37-4.3 59.5-5.7 60.15-7.65 60.8-9.6 60.8-11.95L60.8-11.95Q60.8-14.35 60.15-16.3 59.5-18.25 58.37-19.68 57.25-21.1 55.67-21.88 54.1-22.65 52.3-22.65L52.3-22.65Q50.5-22.65 48.95-21.88 47.4-21.1 46.27-19.68 45.15-18.25 44.5-16.3 43.85-14.35 43.85-11.95L43.85-11.95Q43.85-9.6 44.5-7.65 45.15-5.7 46.27-4.3 47.4-2.9 48.95-2.13 50.5-1.35 52.3-1.35ZM78.14 11.55L78.14 11.55Q73.59 11.55 70.94 9.75 68.29 7.95 68.29 4.9L68.29 4.9Q68.29 3.3 69.24 1.8 70.19 0.3 71.84-0.9L71.84-0.9 71.84-1.1Q70.94-1.65 70.34-2.6 69.74-3.55 69.74-4.95L69.74-4.95Q69.74-6.55 70.64-7.68 71.54-8.8 72.34-9.35L72.34-9.35 72.34-9.55Q71.19-10.55 70.27-12.25 69.34-13.95 69.34-16.15L69.34-16.15Q69.34-18 69.99-19.55 70.64-21.1 71.79-22.23 72.94-23.35 74.49-23.98 76.04-24.6 77.79-24.6L77.79-24.6Q78.79-24.6 79.59-24.43 80.39-24.25 80.94-24L80.94-24 89.09-24 89.09-22.15 83.49-22.15Q84.64-21.15 85.39-19.58 86.14-18 86.14-16.1L86.14-16.1Q86.14-14.25 85.49-12.7 84.84-11.15 83.72-10.03 82.59-8.9 81.07-8.28 79.54-7.65 77.79-7.65L77.79-7.65Q76.79-7.65 75.72-7.9 74.64-8.15 73.79-8.65L73.79-8.65Q72.99-8 72.42-7.2 71.84-6.4 71.84-5.2L71.84-5.2Q71.84-3.9 72.79-2.98 73.74-2.05 76.44-2.05L76.44-2.05 81.59-2.05Q85.64-2.05 87.57-0.73 89.49 0.6 89.49 3.45L89.49 3.45Q89.49 5 88.69 6.48 87.89 7.95 86.42 9.08 84.94 10.2 82.84 10.88 80.74 11.55 78.14 11.55ZM77.79-9.4L77.79-9.4Q79.04-9.4 80.17-9.88 81.29-10.35 82.14-11.25 82.99-12.15 83.49-13.4 83.99-14.65 83.99-16.15L83.99-16.15Q83.99-17.65 83.49-18.9 82.99-20.15 82.17-21 81.34-21.85 80.19-22.33 79.04-22.8 77.79-22.8L77.79-22.8Q76.49-22.8 75.37-22.33 74.24-21.85 73.39-21 72.54-20.15 72.04-18.93 71.54-17.7 71.54-16.15L71.54-16.15Q71.54-14.65 72.04-13.4 72.54-12.15 73.42-11.25 74.29-10.35 75.42-9.88 76.54-9.4 77.79-9.4ZM78.39 9.75L78.39 9.75Q80.39 9.75 82.04 9.22 83.69 8.7 84.84 7.85 85.99 7 86.62 5.93 87.24 4.85 87.24 3.7L87.24 3.7Q87.24 1.7 85.82 0.88 84.39 0.05 81.69 0.05L81.69 0.05 76.54 0.05Q76.14 0.05 75.32-0.03 74.49-0.1 73.54-0.35L73.54-0.35Q71.89 0.8 71.14 2.1 70.39 3.4 70.39 4.7L70.39 4.7Q70.39 6.95 72.47 8.35 74.54 9.75 78.39 9.75ZM107.19 0L104.99 0 104.99-22.1 101.69-22.1 101.69-23.8 104.99-24 104.99-29.35Q104.99-32.95 106.54-34.75 108.09-36.55 110.94-36.55L110.94-36.55Q112.69-36.55 114.44-35.75L114.44-35.75 113.84-33.95Q113.09-34.35 112.36-34.5 111.64-34.65 110.94-34.65L110.94-34.65Q109.04-34.65 108.11-33.25 107.19-31.85 107.19-29.2L107.19-29.2 107.19-24 112.74-24 112.74-22.1 107.19-22.1 107.19 0ZM126.04 0.6L126.04 0.6Q123.89 0.6 121.94-0.25 119.99-1.1 118.51-2.7 117.04-4.3 116.16-6.63 115.29-8.95 115.29-11.95L115.29-11.95Q115.29-14.95 116.16-17.32 117.04-19.7 118.51-21.3 119.99-22.9 121.94-23.75 123.89-24.6 126.04-24.6L126.04-24.6Q128.19-24.6 130.16-23.75 132.14-22.9 133.61-21.3 135.09-19.7 135.96-17.32 136.84-14.95 136.84-11.95L136.84-11.95Q136.84-8.95 135.96-6.63 135.09-4.3 133.61-2.7 132.14-1.1 130.16-0.25 128.19 0.6 126.04 0.6ZM126.04-1.35L126.04-1.35Q127.84-1.35 129.41-2.13 130.99-2.9 132.11-4.3 133.24-5.7 133.89-7.65 134.54-9.6 134.54-11.95L134.54-11.95Q134.54-14.35 133.89-16.3 133.24-18.25 132.11-19.68 130.99-21.1 129.41-21.88 127.84-22.65 126.04-22.65L126.04-22.65Q124.24-22.65 122.69-21.88 121.14-21.1 120.01-19.68 118.89-18.25 118.24-16.3 117.59-14.35 117.59-11.95L117.59-11.95Q117.59-9.6 118.24-7.65 118.89-5.7 120.01-4.3 121.14-2.9 122.69-2.13 124.24-1.35 126.04-1.35ZM146.23 0L144.03 0 144.03-24 145.93-24 146.13-19.55 146.28-19.55Q147.48-21.8 149.21-23.2 150.93-24.6 153.08-24.6L153.08-24.6Q153.78-24.6 154.33-24.5 154.88-24.4 155.48-24.1L155.48-24.1 154.98-22.1Q154.38-22.35 153.93-22.43 153.48-22.5 152.78-22.5L152.78-22.5Q151.18-22.5 149.41-21.13 147.63-19.75 146.23-16.35L146.23-16.35 146.23 0ZM172.08 10.85L169.88 10.85 169.88-24 171.78-24 171.98-21 172.13-21Q173.88-22.4 175.95-23.5 178.03-24.6 180.28-24.6L180.28-24.6Q185.08-24.6 187.48-21.28 189.88-17.95 189.88-12.35L189.88-12.35Q189.88-9.3 189.03-6.9 188.18-4.5 186.7-2.83 185.23-1.15 183.3-0.28 181.38 0.6 179.28 0.6L179.28 0.6Q177.58 0.6 175.78-0.18 173.98-0.95 172.08-2.35L172.08-2.35 172.08 10.85ZM179.18-1.35L179.18-1.35Q180.98-1.35 182.53-2.15 184.08-2.95 185.18-4.4 186.28-5.85 186.9-7.88 187.53-9.9 187.53-12.35L187.53-12.35Q187.53-14.55 187.1-16.45 186.68-18.35 185.78-19.73 184.88-21.1 183.43-21.88 181.98-22.65 179.93-22.65L179.93-22.65Q178.13-22.65 176.2-21.63 174.28-20.6 172.08-18.7L172.08-18.7 172.08-4.45Q174.18-2.75 175.98-2.05 177.78-1.35 179.18-1.35ZM199.28 0L197.08 0 197.08-24 198.98-24 199.18-19.55 199.33-19.55Q200.53-21.8 202.25-23.2 203.98-24.6 206.13-24.6L206.13-24.6Q206.83-24.6 207.38-24.5 207.93-24.4 208.53-24.1L208.53-24.1 208.03-22.1Q207.43-22.35 206.98-22.43 206.53-22.5 205.83-22.5L205.83-22.5Q204.23-22.5 202.45-21.13 200.68-19.75 199.28-16.35L199.28-16.35 199.28 0ZM221.17 0.6L221.17 0.6Q219.02 0.6 217.07-0.25 215.12-1.1 213.65-2.7 212.17-4.3 211.3-6.63 210.42-8.95 210.42-11.95L210.42-11.95Q210.42-14.95 211.3-17.32 212.17-19.7 213.65-21.3 215.12-22.9 217.07-23.75 219.02-24.6 221.17-24.6L221.17-24.6Q223.32-24.6 225.3-23.75 227.27-22.9 228.75-21.3 230.22-19.7 231.1-17.32 231.97-14.95 231.97-11.95L231.97-11.95Q231.97-8.95 231.1-6.63 230.22-4.3 228.75-2.7 227.27-1.1 225.3-0.25 223.32 0.6 221.17 0.6ZM221.17-1.35L221.17-1.35Q222.97-1.35 224.55-2.13 226.12-2.9 227.25-4.3 228.37-5.7 229.02-7.65 229.67-9.6 229.67-11.95L229.67-11.95Q229.67-14.35 229.02-16.3 228.37-18.25 227.25-19.68 226.12-21.1 224.55-21.88 222.97-22.65 221.17-22.65L221.17-22.65Q219.37-22.65 217.82-21.88 216.27-21.1 215.15-19.68 214.02-18.25 213.37-16.3 212.72-14.35 212.72-11.95L212.72-11.95Q212.72-9.6 213.37-7.65 214.02-5.7 215.15-4.3 216.27-2.9 217.82-2.13 219.37-1.35 221.17-1.35ZM247.02 11.55L247.02 11.55Q242.47 11.55 239.82 9.75 237.17 7.95 237.17 4.9L237.17 4.9Q237.17 3.3 238.12 1.8 239.07 0.3 240.72-0.9L240.72-0.9 240.72-1.1Q239.82-1.65 239.22-2.6 238.62-3.55 238.62-4.95L238.62-4.95Q238.62-6.55 239.52-7.68 240.42-8.8 241.22-9.35L241.22-9.35 241.22-9.55Q240.07-10.55 239.15-12.25 238.22-13.95 238.22-16.15L238.22-16.15Q238.22-18 238.87-19.55 239.52-21.1 240.67-22.23 241.82-23.35 243.37-23.98 244.92-24.6 246.67-24.6L246.67-24.6Q247.67-24.6 248.47-24.43 249.27-24.25 249.82-24L249.82-24 257.97-24 257.97-22.15 252.37-22.15Q253.52-21.15 254.27-19.58 255.02-18 255.02-16.1L255.02-16.1Q255.02-14.25 254.37-12.7 253.72-11.15 252.6-10.03 251.47-8.9 249.95-8.28 248.42-7.65 246.67-7.65L246.67-7.65Q245.67-7.65 244.6-7.9 243.52-8.15 242.67-8.65L242.67-8.65Q241.87-8 241.3-7.2 240.72-6.4 240.72-5.2L240.72-5.2Q240.72-3.9 241.67-2.98 242.62-2.05 245.32-2.05L245.32-2.05 250.47-2.05Q254.52-2.05 256.45-0.73 258.37 0.6 258.37 3.45L258.37 3.45Q258.37 5 257.57 6.48 256.77 7.95 255.3 9.08 253.82 10.2 251.72 10.88 249.62 11.55 247.02 11.55ZM246.67-9.4L246.67-9.4Q247.92-9.4 249.05-9.88 250.17-10.35 251.02-11.25 251.87-12.15 252.37-13.4 252.87-14.65 252.87-16.15L252.87-16.15Q252.87-17.65 252.37-18.9 251.87-20.15 251.05-21 250.22-21.85 249.07-22.33 247.92-22.8 246.67-22.8L246.67-22.8Q245.37-22.8 244.25-22.33 243.12-21.85 242.27-21 241.42-20.15 240.92-18.93 240.42-17.7 240.42-16.15L240.42-16.15Q240.42-14.65 240.92-13.4 241.42-12.15 242.3-11.25 243.17-10.35 244.3-9.88 245.42-9.4 246.67-9.4ZM247.27 9.75L247.27 9.75Q249.27 9.75 250.92 9.22 252.57 8.7 253.72 7.85 254.87 7 255.5 5.93 256.12 4.85 256.12 3.7L256.12 3.7Q256.12 1.7 254.7 0.88 253.27 0.05 250.57 0.05L250.57 0.05 245.42 0.05Q245.02 0.05 244.2-0.03 243.37-0.1 242.42-0.35L242.42-0.35Q240.77 0.8 240.02 2.1 239.27 3.4 239.27 4.7L239.27 4.7Q239.27 6.95 241.35 8.35 243.42 9.75 247.27 9.75ZM265.72 0L263.52 0 263.52-24 265.42-24 265.62-19.55 265.77-19.55Q266.97-21.8 268.69-23.2 270.42-24.6 272.57-24.6L272.57-24.6Q273.27-24.6 273.82-24.5 274.37-24.4 274.97-24.1L274.97-24.1 274.47-22.1Q273.87-22.35 273.42-22.43 272.97-22.5 272.27-22.5L272.27-22.5Q270.67-22.5 268.89-21.13 267.12-19.75 265.72-16.35L265.72-16.35 265.72 0ZM283.57 0.6L283.57 0.6Q282.12 0.6 280.87 0.2 279.62-0.2 278.67-1 277.72-1.8 277.17-3.05 276.62-4.3 276.62-6L276.62-6Q276.62-10 280.34-12.08 284.07-14.15 292.12-15.05L292.12-15.05Q292.12-16.4 291.92-17.78 291.72-19.15 291.07-20.23 290.42-21.3 289.32-21.98 288.22-22.65 286.42-22.65L286.42-22.65Q284.02-22.65 282.02-21.7 280.02-20.75 278.77-19.85L278.77-19.85 277.77-21.5Q278.42-21.95 279.34-22.5 280.27-23.05 281.42-23.5 282.57-23.95 283.92-24.28 285.27-24.6 286.72-24.6L286.72-24.6Q288.82-24.6 290.27-23.88 291.72-23.15 292.62-21.9 293.52-20.65 293.92-18.98 294.32-17.3 294.32-15.35L294.32-15.35 294.32 0 292.42 0 292.22-3.1 292.07-3.1Q290.22-1.65 288.09-0.53 285.97 0.6 283.57 0.6ZM283.97-1.3L283.97-1.3Q286.07-1.3 287.97-2.3 289.87-3.3 292.12-5.2L292.12-5.2 292.12-13.35Q288.42-12.9 285.87-12.25 283.32-11.6 281.77-10.7 280.22-9.8 279.54-8.65 278.87-7.5 278.87-6.1L278.87-6.1Q278.87-4.8 279.27-3.9 279.67-3 280.37-2.43 281.07-1.85 281.99-1.58 282.92-1.3 283.97-1.3ZM305.06 0L302.86 0 302.86-24 304.76-24 304.96-20.3 305.11-20.3Q306.71-22.15 308.69-23.38 310.66-24.6 312.66-24.6L312.66-24.6Q315.56-24.6 317.11-23.28 318.66-21.95 319.31-19.7L319.31-19.7Q321.41-21.95 323.39-23.28 325.36-24.6 327.46-24.6L327.46-24.6Q334.66-24.6 334.66-15.4L334.66-15.4 334.66 0 332.41 0 332.41-15.1Q332.41-18.95 331.11-20.78 329.81-22.6 327.06-22.6L327.06-22.6Q323.81-22.6 319.86-18.1L319.86-18.1 319.86 0 317.66 0 317.66-15.1Q317.66-18.95 316.36-20.78 315.06-22.6 312.26-22.6L312.26-22.6Q309.01-22.6 305.06-18.1L305.06-18.1 305.06 0ZM345.66 0L343.46 0 343.46-24 345.36-24 345.56-20.3 345.71-20.3Q347.31-22.15 349.29-23.38 351.26-24.6 353.26-24.6L353.26-24.6Q356.16-24.6 357.71-23.28 359.26-21.95 359.91-19.7L359.91-19.7Q362.01-21.95 363.99-23.28 365.96-24.6 368.06-24.6L368.06-24.6Q375.26-24.6 375.26-15.4L375.26-15.4 375.26 0 373.01 0 373.01-15.1Q373.01-18.95 371.71-20.78 370.41-22.6 367.66-22.6L367.66-22.6Q364.41-22.6 360.46-18.1L360.46-18.1 360.46 0 358.26 0 358.26-15.1Q358.26-18.95 356.96-20.78 355.66-22.6 352.86-22.6L352.86-22.6Q349.61-22.6 345.66-18.1L345.66-18.1 345.66 0ZM393.16 0.6L393.16 0.6Q390.86 0.6 388.83-0.25 386.81-1.1 385.31-2.73 383.81-4.35 382.93-6.68 382.06-9 382.06-11.95L382.06-11.95Q382.06-14.9 382.93-17.25 383.81-19.6 385.28-21.23 386.76-22.85 388.63-23.73 390.51-24.6 392.51-24.6L392.51-24.6Q396.81-24.6 399.26-21.7 401.71-18.8 401.71-13.5L401.71-13.5Q401.71-13.05 401.71-12.6 401.71-12.15 401.61-11.7L401.61-11.7 384.31-11.7Q384.36-9.45 385.01-7.53 385.66-5.6 386.83-4.23 388.01-2.85 389.66-2.08 391.31-1.3 393.36-1.3L393.36-1.3Q395.31-1.3 396.88-1.88 398.46-2.45 399.81-3.45L399.81-3.45 400.71-1.75Q399.26-0.9 397.53-0.15 395.81 0.6 393.16 0.6ZM384.31-13.5L384.31-13.5 399.61-13.5Q399.61-18.15 397.71-20.43 395.81-22.7 392.56-22.7L392.56-22.7Q391.01-22.7 389.61-22.08 388.21-21.45 387.08-20.25 385.96-19.05 385.23-17.35 384.51-15.65 384.31-13.5ZM410.41 0L408.21 0 408.21-24 410.11-24 410.31-19.55 410.46-19.55Q411.66-21.8 413.38-23.2 415.11-24.6 417.26-24.6L417.26-24.6Q417.96-24.6 418.51-24.5 419.06-24.4 419.66-24.1L419.66-24.1 419.16-22.1Q418.56-22.35 418.11-22.43 417.66-22.5 416.96-22.5L416.96-22.5Q415.36-22.5 413.58-21.13 411.81-19.75 410.41-16.35L410.41-16.35 410.41 0ZM429.85 0.6L429.85 0.6Q427.15 0.6 424.9-0.38 422.65-1.35 421.05-2.7L421.05-2.7 422.35-4.35Q423.9-3.05 425.65-2.18 427.4-1.3 430-1.3L430-1.3Q432.85-1.3 434.28-2.73 435.7-4.15 435.7-6.05L435.7-6.05Q435.7-7.15 435.18-8 434.65-8.85 433.8-9.45 432.95-10.05 431.93-10.5 430.9-10.95 429.85-11.35L429.85-11.35Q428.5-11.85 427.13-12.4 425.75-12.95 424.65-13.73 423.55-14.5 422.88-15.58 422.2-16.65 422.2-18.2L422.2-18.2Q422.2-19.5 422.7-20.68 423.2-21.85 424.2-22.73 425.2-23.6 426.63-24.1 428.05-24.6 429.95-24.6L429.95-24.6Q431.85-24.6 433.68-23.9 435.5-23.2 436.8-22.1L436.8-22.1 435.6-20.55Q434.4-21.45 433.05-22.08 431.7-22.7 429.85-22.7L429.85-22.7Q428.45-22.7 427.45-22.33 426.45-21.95 425.78-21.35 425.1-20.75 424.78-19.95 424.45-19.15 424.45-18.35L424.45-18.35Q424.45-17.3 424.93-16.57 425.4-15.85 426.2-15.3 427-14.75 428.03-14.33 429.05-13.9 430.1-13.5L430.1-13.5Q431.5-12.95 432.9-12.4 434.3-11.85 435.43-11.05 436.55-10.25 437.25-9.08 437.95-7.9 437.95-6.15L437.95-6.15Q437.95-4.8 437.43-3.58 436.9-2.35 435.85-1.43 434.8-0.5 433.3 0.05 431.8 0.6 429.85 0.6Z" opacity="1" transform="matrix(1,0,0,1,0,0)" fill="#111111" class="slogan-text-1" data-fill-palette-color="secondary" id="text-1"></path></svg></g></svg></g></svg></g></svg></g><g transform="matrix(1,0,0,1,0,0.1748835893028442)"><svg viewBox="0 0 66.78524461732749 69.95343572113782" height="69.95343572113782" width="66.78524461732749"><g><svg version="1.0" xmlns="http://www.w3.org/2000/svg" xmlns:xlink="http://www.w3.org/1999/xlink" x="0" y="0" viewBox="0 0 95.471 100" enable-background="new 0 0 95.471 100" xml:space="preserve" width="66.78524461732749" height="69.95343572113782" class="icon-icon-0" data-fill-palette-color="accent" id="icon-0"><path d="M47.735 0c-0.083 2.825-1.738 13.412-19.799 30.934C10.554 47.797 2.439 49.824 0 50c2.439 0.178 10.554 2.204 27.936 19.066C45.997 86.589 47.652 97.177 47.735 100c0.083-2.823 1.739-13.411 19.798-30.934C84.917 52.204 93.031 50.178 95.471 50c-2.439-0.176-10.554-2.203-27.938-19.066C49.475 13.412 47.819 2.825 47.735 0z" fill="#111111" data-fill-palette-color="accent"></path></svg></g></svg></g></svg></g><defs></defs></svg><rect width="395.52" height="57.50789756524955" fill="none" stroke="none" visibility="hidden"></rect></g></svg></g></svg>